<svg width="200" height="66" viewBox="0 0 200 66" fill="none" xmlns="http://www.w3.org/2000/svg">
<g clip-path="url(#clip0_1_1634)">
<path d="M60.0181 41.5078V28.3876H55.5283V20.7847H60.2436L61.8145 13.613H68.4363V20.7847H76.4061V28.3876H68.4363V40.4665C68.4363 43.165 69.2795 43.4701 72.926 43.4701H76.4061V51.1346C75.0581 51.4425 72.8697 51.7476 70.9067 51.7476C63.5545 51.7476 60.0181 48.8056 60.0181 41.5078Z" fill="#16144A"/>
<path d="M80.3374 51.6244V20.7847H88.1381V25.7506H88.4737C89.8781 22.6238 92.4022 20.1716 96.3871 20.1716C102.281 20.1716 104.47 24.9528 104.47 31.1447V33.9665H96.1079V32.3122C96.1079 29.0006 95.1546 27.9593 92.515 27.9593C89.8754 27.9593 88.6993 28.939 88.6993 32.3122V51.6244H80.3374Z" fill="#16144A"/>
<path d="M106.773 36.2954C106.773 26.4252 112.163 20.1716 120.973 20.1716C129.783 20.1716 134.442 25.689 134.442 33.7201C134.442 35.436 134.217 37.2135 134.05 38.2577H114.687C114.856 42.549 116.427 44.2649 121.029 44.2649C124.397 44.2649 125.858 43.4671 125.858 41.5664V41.1998H134.163V41.8128C134.163 48.3714 128.999 52.2345 120.917 52.2345C111.207 52.2345 106.773 46.0425 106.773 36.2954ZM114.743 32.6788H126.362C126.531 29.4904 124.622 27.7129 120.694 27.7129C116.765 27.7129 115.082 29.4288 114.743 32.6788Z" fill="#16144A"/>
<path d="M137.812 36.2368C137.812 26.4898 142.358 20.1746 150.049 20.1746C154.369 20.1746 156.953 22.2601 158.244 24.8355H158.58V10.5508H166.942V51.6274H159.141V47.0897H158.859C157.401 50.4013 154.2 52.2404 150.046 52.2404C142.076 52.2404 137.81 45.9252 137.81 36.2398L137.812 36.2368ZM152.404 44.3911C156.389 44.3911 158.577 42.8571 158.577 38.689V33.7231C158.577 29.555 156.389 28.0209 152.404 28.0209C147.522 28.0209 146.174 30.5963 146.174 36.2368C146.174 41.8774 147.522 44.3911 152.404 44.3911Z" fill="#16144A"/>
<path d="M171.937 40.3433V20.7847H180.299V38.5042C180.299 42.7954 181.647 44.3295 185.854 44.3295C190.062 44.3295 191.636 42.9186 191.636 38.2607V20.7876H199.998V51.6273H192.197V46.2331H191.915C190.344 49.7882 187.369 52.2404 182.431 52.2404C175.022 52.2404 171.934 46.9078 171.934 40.3462L171.937 40.3433Z" fill="#16144A"/>
<path d="M0 32.5821H28.1253C31.8954 32.5821 34.9539 29.2412 34.9539 25.123C34.9539 21.0047 31.8954 17.6638 28.1253 17.6638H6.82859C3.0585 17.6638 0 21.0047 0 25.123V32.5821Z" fill="#46AEE2"/>
<path d="M17.4758 15.5577C21.4087 15.5577 24.5971 12.075 24.5971 7.77885C24.5971 3.48271 21.4087 0 17.4758 0C13.5428 0 10.3545 3.48271 10.3545 7.77885C10.3545 12.075 13.5428 15.5577 17.4758 15.5577Z" fill="#FACB13"/>
<path d="M24.4896 34.7263H10.3545C10.3545 50.5773 21.031 63.7005 34.9541 66.0001V50.2048C28.8961 48.1721 24.4923 42.0095 24.4923 34.7293L24.4896 34.7263Z" fill="#374B9D"/>
</g>
<defs>
<clipPath id="clip0_1_1634">
<rect width="200" height="66" fill="white"/>
</clipPath>
</defs>
</svg>
